# xmcd
#
# Track frame offsets: 
#        150
#        26357
#        43802
#
# Disc length: 857 seconds
#
# Revision: 1
# Processed by: cddbd v1.5.2PL0 Copyright (c) Steve Scherf et al.
# Submitted via: ExactAudioCopy v0.95b4
#
DISCID=1c035703
DTITLE=Anthem - Gypsy Ways (Win, Lose Or Draw) (Single)
DYEAR=2000
DGENRE=Heavy Metal
TTITLE0=Gypsy Ways (Win, Lose Or Draw)
TTITLE1=Show Must Go On!
TTITLE2=Love In Vain
EXTD=
EXTT0=
EXTT1=
EXTT2=
PLAYORDER=
